<?xml version="1.0" standalone="no"?>
<!DOCTYPE svg PUBLIC "-//W3C//DTD SVG 20010904//EN"
 "http://www.w3.org/TR/2001/REC-SVG-20010904/DTD/svg10.dtd">
<svg version="1.0" xmlns="http://www.w3.org/2000/svg"
 width="512.000000pt" height="512.000000pt" viewBox="0 0 512.000000 512.000000"
 preserveAspectRatio="xMidYMid meet">

<g transform="translate(0.000000,512.000000) scale(0.100000,-0.100000)"
fill="#000000" stroke="none">
<path d="M1945 4673 c-316 -158 -575 -290 -575 -293 0 -3 269 -140 598 -304
l597 -298 593 296 c325 163 592 299 592 304 0 4 -260 137 -577 295 -453 226
-586 288 -615 287 -28 0 -177 -70 -613 -287z"/>
<path d="M1210 3393 l0 -718 23 -40 c21 -38 45 -52 592 -327 314 -158 573
-287 578 -288 4 0 7 337 7 750 l0 750 -590 295 c-324 162 -594 295 -600 295
-7 0 -10 -244 -10 -717z"/>
<path d="M3303 3812 l-593 -297 0 -747 c0 -412 3 -748 8 -748 4 1 264 130 577
288 547 275 571 289 592 327 l23 40 0 718 c0 394 -3 717 -7 716 -5 0 -275
-134 -600 -297z"/>
<path d="M630 3000 c-232 -139 -426 -327 -528 -510 -17 -30 -45 -98 -63 -150
-30 -88 -33 -105 -33 -225 0 -105 4 -145 22 -208 111 -386 502 -711 1113 -925
130 -45 423 -121 572 -147 l97 -17 0 -270 c0 -250 1 -272 20 -308 35 -69 125
-99 193 -64 17 9 238 155 492 324 490 327 495 331 495 410 0 79 -5 83 -495
410 -254 169 -475 315 -492 324 -68 35 -158 5 -193 -64 -18 -35 -20 -58 -20
-245 0 -168 -2 -205 -14 -205 -56 0 -363 76 -526 131 -494 165 -839 416 -939
685 -99 263 60 553 428 781 102 64 136 96 146 144 21 96 -47 179 -148 179 -35
0 -61 -10 -127 -50z"/>
<path d="M4283 3030 c-87 -53 -96 -177 -17 -239 16 -12 78 -54 138 -93 128
-83 274 -222 330 -316 104 -172 111 -325 24 -502 -35 -71 -58 -102 -147 -191
-68 -68 -142 -130 -207 -172 -116 -77 -321 -178 -480 -235 -111 -41 -360 -111
-467 -132 -128 -25 -188 -152 -116 -244 49 -62 97 -68 262 -31 320 73 648 199
886 343 186 111 385 290 480 430 194 287 198 618 9 907 -61 94 -242 280 -341
350 -38 26 -105 70 -149 96 -93 56 -148 64 -205 29z"/>
</g>
</svg>
