<?xml version="1.0" standalone="no"?>
<!DOCTYPE svg PUBLIC "-//W3C//DTD SVG 20010904//EN"
 "http://www.w3.org/TR/2001/REC-SVG-20010904/DTD/svg10.dtd">
<svg version="1.0" xmlns="http://www.w3.org/2000/svg"
 width="512.000000pt" height="512.000000pt" viewBox="0 0 512.000000 512.000000"
 preserveAspectRatio="xMidYMid meet">

<g transform="translate(0.000000,512.000000) scale(0.100000,-0.100000)"
fill="#000000" stroke="none">
<path d="M1063 4760 c-51 -12 -83 -38 -104 -83 -18 -40 -19 -81 -19 -967 0
-891 1 -927 20 -967 11 -25 33 -51 52 -63 32 -19 49 -20 612 -20 l579 0 156
90 c133 76 164 90 201 90 37 0 68 -14 201 -90 l156 -90 579 0 c563 0 580 1
612 20 19 12 41 38 52 63 19 40 20 76 20 967 l0 926 -22 44 c-14 26 -37 53
-58 65 -35 20 -49 20 -1520 22 -817 0 -1500 -2 -1517 -7z m923 -356 c19 -9 41
-26 49 -37 27 -38 507 -1171 512 -1207 6 -42 -24 -110 -59 -134 -30 -21 -80
-30 -123 -22 -56 11 -88 47 -130 146 l-38 90 -280 -2 -281 -3 -35 -82 c-51
-116 -91 -153 -166 -153 -78 0 -136 54 -143 132 -4 51 7 78 243 628 135 316
253 585 261 598 38 57 123 78 190 46z m1466 -12 c127 -51 236 -165 274 -286
22 -70 29 -190 15 -259 -28 -133 -134 -265 -254 -317 -31 -14 -57 -28 -57 -31
0 -3 67 -63 149 -132 89 -76 154 -139 161 -157 19 -45 8 -125 -21 -156 -50
-54 -121 -69 -178 -39 -16 8 -136 106 -267 219 l-239 205 -5 -174 c-4 -155 -7
-177 -26 -202 -66 -90 -201 -81 -251 17 l-23 44 0 586 0 586 23 44 c40 79 51
81 367 78 259 -3 278 -5 332 -26z"/>
<path d="M1845 3724 c-38 -91 -71 -169 -73 -175 -2 -5 56 -9 146 -9 l150 0
-74 172 c-40 94 -75 172 -76 174 -2 1 -34 -72 -73 -162z"/>
<path d="M3030 3951 l0 -171 143 0 c162 0 207 13 248 71 35 50 39 142 7 188
-48 71 -62 76 -239 79 l-159 3 0 -170z"/>
<path d="M80 3921 c-19 -10 -45 -36 -57 -57 l-23 -39 0 -1478 c0 -1637 -5
-1521 64 -1570 l31 -22 598 -3 597 -2 0 676 0 677 43 41 c23 22 110 79 192
126 l150 85 -350 5 -350 5 -68 32 c-130 62 -231 192 -257 332 -6 32 -10 290
-10 632 l0 579 -263 0 c-236 0 -266 -2 -297 -19z"/>
<path d="M4480 3361 c0 -351 -4 -599 -10 -632 -27 -140 -121 -263 -249 -327
l-75 -37 -350 -5 -351 -5 162 -94 c91 -52 176 -109 193 -128 l30 -34 0 -675 0
-674 598 2 597 3 31 22 c69 49 64 -67 64 1570 l0 1478 -23 39 c-41 73 -57 76
-354 76 l-263 0 0 -579z"/>
<path d="M2148 2282 c-224 -130 -404 -239 -400 -243 9 -9 784 -457 803 -464
12 -4 796 438 822 464 6 6 -806 484 -816 480 -1 0 -185 -107 -409 -237z"/>
<path d="M1592 1304 l3 -478 400 -232 c220 -128 403 -233 408 -233 4 -1 7 212
7 473 l0 474 -375 216 c-206 119 -390 226 -410 237 l-35 21 2 -478z"/>
<path d="M3118 1543 l-408 -236 0 -474 c0 -293 4 -473 9 -471 6 1 190 107 410
233 l400 230 1 478 c0 262 -1 477 -2 477 -2 -1 -186 -107 -410 -237z"/>
</g>
</svg>
