<?xml version="1.0" standalone="no"?>
<!DOCTYPE svg PUBLIC "-//W3C//DTD SVG 20010904//EN"
 "http://www.w3.org/TR/2001/REC-SVG-20010904/DTD/svg10.dtd">
<svg version="1.0" xmlns="http://www.w3.org/2000/svg"
 width="512.000000pt" height="512.000000pt" viewBox="0 0 512.000000 512.000000"
 preserveAspectRatio="xMidYMid meet">

<g transform="translate(0.000000,512.000000) scale(0.100000,-0.100000)"
fill="#000000" stroke="none">
<path d="M1745 5114 c-611 -46 -1146 -369 -1465 -882 -185 -300 -273 -612
-273 -977 0 -510 184 -955 543 -1315 338 -337 749 -516 1253 -545 59 -4 119
-12 133 -20 20 -10 32 -11 50 -3 13 6 24 14 24 18 0 4 43 12 96 19 408 53 782
238 1074 531 292 291 475 661 531 1073 l12 87 112 0 c123 0 145 9 145 63 0 45
-32 57 -146 57 l-102 0 -6 88 c-20 301 -70 509 -179 744 -228 490 -694 874
-1222 1007 -168 42 -425 67 -580 55z"/>
<path d="M4172 3204 c-27 -19 -29 -64 -4 -87 16 -14 44 -17 178 -17 87 0 164
4 170 8 36 24 34 81 -5 101 -11 7 -82 11 -168 11 -118 0 -153 -3 -171 -16z"/>
<path d="M4730 3200 c-25 -25 -26 -62 -2 -83 16 -14 44 -17 178 -17 169 0 186
4 199 47 4 17 -1 29 -19 48 -25 25 -28 25 -181 25 -142 0 -157 -2 -175 -20z"/>
<path d="M5020 2930 c-18 -18 -20 -33 -20 -180 0 -147 2 -162 20 -180 11 -11
29 -20 40 -20 11 0 29 9 40 20 18 18 20 33 20 180 0 147 -2 162 -20 180 -11
11 -29 20 -40 20 -11 0 -29 -9 -40 -20z"/>
<path d="M5020 2370 c-18 -18 -20 -33 -20 -180 0 -147 2 -162 20 -180 11 -11
29 -20 40 -20 11 0 29 9 40 20 18 18 20 33 20 180 0 151 -1 160 -22 180 -28
25 -52 26 -78 0z"/>
<path d="M5026 1809 l-26 -20 0 -160 c0 -146 2 -161 20 -179 27 -27 65 -26 84
2 13 18 16 53 16 176 0 149 -1 154 -25 177 -29 30 -35 31 -69 4z"/>
<path d="M5017 1242 c-14 -16 -17 -43 -17 -173 0 -174 8 -199 60 -199 52 0 60
26 60 195 0 120 -3 155 -16 173 -19 27 -64 29 -87 4z"/>
<path d="M1920 1180 c-18 -18 -20 -33 -20 -175 0 -153 0 -156 25 -181 19 -18
31 -23 48 -19 43 13 47 30 47 200 0 144 -2 164 -18 178 -25 23 -58 21 -82 -3z"/>
<path d="M5016 678 c-13 -18 -16 -53 -16 -173 0 -169 8 -195 60 -195 52 0 60
26 60 195 0 169 -8 195 -60 195 -18 0 -34 -8 -44 -22z"/>
<path d="M1920 620 c-18 -18 -20 -33 -20 -175 0 -152 1 -156 25 -180 29 -30
49 -31 75 -5 18 18 20 33 20 180 0 147 -2 162 -20 180 -11 11 -29 20 -40 20
-11 0 -29 -9 -40 -20z"/>
<path d="M5025 130 c-4 -6 -56 -10 -124 -10 -130 0 -151 -9 -151 -63 0 -48 29
-57 187 -57 130 0 145 2 163 20 41 41 14 120 -40 120 -16 0 -32 -4 -35 -10z"/>
<path d="M1960 100 c-25 -25 -25 -41 1 -74 l20 -26 160 0 c146 0 161 2 179 20
11 11 20 29 20 40 0 11 -9 29 -20 40 -18 18 -33 20 -180 20 -147 0 -162 -2
-180 -20z"/>
<path d="M2521 94 c-27 -34 -26 -40 4 -69 24 -24 28 -25 180 -25 142 0 157 2
175 20 11 11 20 29 20 40 0 11 -9 29 -20 40 -18 18 -33 20 -179 20 l-160 0
-20 -26z"/>
<path d="M3092 104 c-14 -10 -22 -26 -22 -44 0 -52 26 -60 195 -60 169 0 195
8 195 60 0 52 -26 60 -195 60 -120 0 -155 -3 -173 -16z"/>
<path d="M3652 104 c-14 -10 -22 -26 -22 -44 0 -52 26 -60 195 -60 169 0 195
8 195 60 0 52 -26 60 -195 60 -120 0 -155 -3 -173 -16z"/>
<path d="M4212 104 c-14 -10 -22 -26 -22 -44 0 -52 26 -60 195 -60 169 0 195
8 195 60 0 52 -26 60 -195 60 -120 0 -155 -3 -173 -16z"/>
</g>
</svg>
