<?xml version="1.0" standalone="no"?>
<!DOCTYPE svg PUBLIC "-//W3C//DTD SVG 20010904//EN"
 "http://www.w3.org/TR/2001/REC-SVG-20010904/DTD/svg10.dtd">
<svg version="1.0" xmlns="http://www.w3.org/2000/svg"
 width="512.000000pt" height="512.000000pt" viewBox="0 0 512.000000 512.000000"
 preserveAspectRatio="xMidYMid meet">

<g transform="translate(0.000000,512.000000) scale(0.100000,-0.100000)"
fill="#000000" stroke="none">
<path d="M2435 5114 c-16 -2 -66 -9 -110 -15 -137 -18 -315 -74 -445 -139
-459 -230 -770 -651 -851 -1155 -22 -133 -17 -390 9 -521 28 -140 72 -275 127
-385 23 -48 325 -562 671 -1143 l629 -1056 95 0 95 0 629 1056 c346 581 648
1095 671 1143 55 110 99 245 127 385 26 131 31 388 9 521 -107 665 -629 1190
-1286 1294 -76 12 -321 22 -370 15z m218 -1159 c162 -42 268 -157 299 -325 22
-116 -23 -252 -112 -340 -88 -89 -224 -134 -340 -112 -178 33 -299 154 -332
332 -22 115 23 252 110 339 102 102 240 141 375 106z"/>
<path d="M422 1047 l-423 -852 1 -97 0 -98 2560 0 2560 0 0 96 0 96 -427 854
-428 854 -275 -2 -274 -3 -445 -747 -445 -748 -266 0 -266 0 -445 748 -445
747 -279 2 -280 2 -423 -852z"/>
</g>
</svg>
