<?xml version="1.0" standalone="no"?>
<!DOCTYPE svg PUBLIC "-//W3C//DTD SVG 20010904//EN"
 "http://www.w3.org/TR/2001/REC-SVG-20010904/DTD/svg10.dtd">
<svg version="1.0" xmlns="http://www.w3.org/2000/svg"
 width="512.000000pt" height="512.000000pt" viewBox="0 0 512.000000 512.000000"
 preserveAspectRatio="xMidYMid meet">

<g transform="translate(0.000000,512.000000) scale(0.100000,-0.100000)"
fill="#000000" stroke="none">
<path d="M3678 4770 l-30 -30 4 -106 c3 -97 5 -107 27 -125 32 -26 82 -25 109
4 20 21 22 34 22 131 0 100 -2 108 -25 131 -33 34 -70 32 -107 -5z"/>
<path d="M2986 4489 c-20 -15 -26 -29 -26 -57 0 -33 8 -46 73 -109 39 -39 82
-74 94 -77 26 -8 78 16 87 39 18 48 7 71 -73 148 -86 84 -109 92 -155 56z"/>
<path d="M4322 4436 c-68 -66 -76 -78 -76 -111 0 -29 7 -43 29 -62 44 -39 77
-26 163 61 82 84 92 117 47 161 -44 45 -77 35 -163 -49z"/>
<path d="M3610 4324 c-85 -18 -212 -82 -277 -139 -70 -62 -148 -180 -175 -268
-33 -103 -32 -273 0 -372 53 -159 151 -274 294 -344 233 -115 508 -81 689 87
116 106 182 245 195 409 31 387 -343 710 -726 627z"/>
<path d="M2692 3787 c-27 -29 -28 -77 -3 -108 18 -22 28 -24 125 -27 l106 -4
30 30 c37 37 39 74 5 107 -23 24 -31 25 -133 25 -101 0 -110 -2 -130 -23z"/>
<path d="M4512 3787 c-27 -29 -28 -77 -3 -108 18 -22 28 -24 125 -27 l106 -4
30 30 c37 37 39 74 5 107 -23 24 -31 25 -133 25 -101 0 -110 -2 -130 -23z"/>
<path d="M1980 3524 c0 -2 19 -41 42 -85 36 -69 43 -92 46 -153 2 -39 -1 -90
-7 -112 -15 -56 -65 -120 -119 -152 -42 -24 -57 -27 -137 -27 -75 0 -98 4
-138 24 -76 37 -129 99 -191 220 -31 61 -71 126 -90 145 l-33 36 -39 -16
c-189 -79 -447 -256 -534 -367 l-21 -26 38 -10 c67 -17 95 -20 248 -31 189
-14 270 -31 362 -74 90 -43 155 -107 194 -191 39 -81 45 -148 25 -252 -26
-138 -18 -151 121 -192 83 -25 128 -59 154 -116 23 -51 23 -89 0 -140 -27 -60
-65 -100 -118 -125 -50 -23 -51 -23 -340 -16 -88 2 -102 -14 -120 -135 -20
-137 -59 -192 -192 -277 -123 -77 -181 -143 -165 -187 9 -21 36 -26 155 -28
94 -2 110 -5 164 -32 52 -26 67 -40 112 -109 29 -44 59 -84 69 -89 47 -26 144
14 259 108 92 76 157 110 238 127 94 20 167 1 333 -83 129 -66 144 -71 190
-67 27 3 76 15 109 28 113 44 215 25 280 -52 41 -48 90 -156 104 -229 7 -35
15 -70 17 -78 6 -19 105 78 189 184 118 150 206 317 264 498 34 105 38 137 19
137 -30 0 -122 53 -169 97 -28 26 -66 74 -86 108 -75 129 -124 167 -309 246
-141 59 -205 100 -271 173 -40 43 -57 73 -73 123 -26 84 -25 122 5 268 28 135
31 201 11 248 -7 18 -47 83 -89 144 -94 139 -119 210 -118 338 0 50 2 101 3
114 3 22 -3 26 -67 42 -91 24 -325 55 -325 43z"/>
<path d="M1689 3510 c-80 -14 -159 -31 -159 -36 0 -2 15 -27 33 -56 19 -29 47
-82 64 -118 31 -69 80 -126 120 -141 13 -5 42 -9 64 -9 32 0 47 7 71 30 28 29
30 35 26 88 -4 46 -15 77 -59 154 -60 108 -55 106 -160 88z"/>
<path d="M2525 3362 c-12 -90 15 -163 118 -317 113 -167 127 -241 87 -447 -27
-138 -26 -212 3 -263 28 -50 119 -113 219 -150 198 -75 280 -137 377 -282 69
-104 123 -157 166 -165 18 -3 21 5 27 87 9 109 -6 318 -32 437 -103 471 -417
880 -841 1093 -121 61 -116 61 -124 7z"/>
<path d="M4278 3206 c-22 -17 -39 -61 -31 -83 3 -10 38 -51 77 -90 62 -65 75
-73 108 -73 28 0 42 6 57 26 37 48 29 72 -57 157 -81 81 -114 94 -154 63z"/>
<path d="M3678 2950 l-30 -30 4 -106 c3 -97 5 -107 27 -125 32 -26 82 -25 109
4 20 21 22 34 22 131 0 100 -2 108 -25 131 -33 34 -70 32 -107 -5z"/>
<path d="M590 2803 c-111 -168 -197 -377 -241 -583 -29 -137 -32 -398 -7 -535
84 -451 352 -853 733 -1101 450 -293 981 -343 1458 -137 110 48 250 125 301
167 l26 21 -19 85 c-27 119 -59 211 -84 238 -27 29 -65 28 -143 -3 -129 -52
-195 -43 -369 50 -100 53 -188 85 -232 85 -39 0 -103 -36 -198 -112 -116 -91
-195 -129 -286 -136 -118 -8 -182 30 -260 154 -49 76 -68 84 -215 84 -86 0
-107 3 -145 23 -95 51 -130 171 -81 280 26 59 110 143 182 184 114 64 159 124
160 213 0 76 18 119 70 171 71 71 115 81 310 73 l156 -7 29 27 c29 25 29 26
11 41 -11 8 -57 26 -103 40 -140 43 -187 103 -185 235 0 41 5 106 12 143 10
64 9 72 -13 120 -59 129 -151 169 -426 187 -192 13 -283 26 -340 51 -24 10
-45 19 -47 19 -1 0 -26 -35 -54 -77z"/>
</g>
</svg>
